<?xml version="1.0" encoding="UTF-8" standalone="no"?><!DOCTYPE svg PUBLIC "-//W3C//DTD SVG 1.1//EN" "http://www.w3.org/Graphics/SVG/1.1/DTD/svg11.dtd"><svg width="100%" height="100%" viewBox="0 0 3165 315" version="1.1" xmlns="http://www.w3.org/2000/svg" xmlns:xlink="http://www.w3.org/1999/xlink" xml:space="preserve" xmlns:serif="http://www.serif.com/" style="fill-rule:evenodd;clip-rule:evenodd;stroke-linejoin:round;stroke-miterlimit:2;"><g id="I"><path d="M0,313.167c1.25,-46.625 1.25,-89.959 1.25,-156.167c0,-66.208 0,-109.917 -1.25,-156.167l133.25,0c-1.25,45.792 -1.25,89.125 -1.25,155.75c0,66.625 0.417,109.542 1.25,156.584l-133.25,-0Z" style="fill:#fff;fill-rule:nonzero;"/></g><g id="T"><path d="M495.083,0.833c-0.833,12.5 -0.833,32.084 -0.833,49.542c0,17.458 0,37.875 0.833,51.625c-35,-0.833 -69.541,-0.833 -101.625,-1.25c0,98.708 0.417,190.292 1.667,212.792c-18.292,-1.25 -48.292,-1.25 -69.542,-1.25c-21.25,-0 -50.375,-0 -69.958,1.25c1.25,-22.084 2.083,-113.667 2.5,-212.792c-32.042,0.417 -66.625,0.417 -102.042,1.25c0.417,-13.75 0.417,-34.542 0.417,-51.625c0,-17.083 0,-36.667 -0.417,-49.542l339,0Z" style="fill:#fff;fill-rule:nonzero;"/></g><g id="The_Pinch"><rect x="561.792" y="0.625" width="1805.5" height="313.917" style="fill:#fff;"/></g><g id="L"><path d="M2570.88,0c-1.292,23.458 -1.708,88.708 -2.125,158.208l0,54.834c40.167,-0 94.583,-0 141.458,-1.25c-0.416,16.75 -0.833,33.916 -0.833,51.041c0,17.125 0.417,33.917 0.833,51.084l-276.25,-0c0.417,-27.209 1.667,-89.959 1.667,-156.959c0,-70.75 -0.417,-126.833 -1.667,-156.958l136.917,-0Z" style="fill:#fff;fill-rule:nonzero;"/></g><g id="A"><path d="M3011.58,313.917c-1.708,-11.292 -6.291,-32.25 -13.375,-57.75l-133.083,-0c-7.125,24.708 -12.542,45.208 -14.625,57.75l-140.208,-0c35.583,-79.959 103.375,-267.459 118.041,-313.917l214.709,0c15.5,46.875 84.125,233.125 121.375,313.917l-152.834,-0Zm-33.5,-126.834c-8.791,-28.458 -18,-57.333 -27.208,-82.875c-8.375,-20.5 -14.208,-39.333 -18.833,-54c-4.625,14.625 -10.875,33.084 -18.834,54.834c-8.333,25.125 -18,53.583 -26.791,81.625c16.75,0.416 32.666,0.416 45.208,0.416l46.458,0Z" style="fill:#fff;fill-rule:nonzero;"/></g></svg>